<svg width="31" height="31" viewBox="0 0 31 31" fill="none" xmlns="http://www.w3.org/2000/svg">
<path opacity="0.4" d="M15.5 6.84586V27.5513C15.7196 27.5513 15.9521 27.5125 16.1329 27.4092L16.1846 27.3834C18.6646 26.0271 22.9916 24.6063 25.7945 24.2317L26.1692 24.18C27.4092 24.025 28.4167 22.8625 28.4167 21.6225V6.01917C28.4167 4.48209 27.1638 3.3196 25.6267 3.44877C22.9142 3.66835 18.8067 5.03755 16.5075 6.4713L16.1846 6.66501C15.9909 6.78126 15.7454 6.84586 15.5 6.84586Z" fill="#00B06C"/>
<path d="M2.58337 6.03203V21.6225C2.58337 22.8625 3.59086 24.0249 4.83086 24.1799L5.25713 24.2316C8.07297 24.6062 12.413 26.0399 14.893 27.4091C15.0609 27.5124 15.2675 27.5512 15.5 27.5512V6.84578C15.2546 6.84578 15.0092 6.78118 14.8154 6.66493L14.5959 6.52287C12.2967 5.0762 8.17627 3.69412 5.46377 3.46162H5.38627C3.84919 3.33246 2.58337 4.48203 2.58337 6.03203Z" fill="#00B06C"/>
<path d="M24.5417 3.59088V9.1321C24.5417 9.64877 23.9733 9.95875 23.5341 9.67458L21.9583 8.62833L20.3825 9.67458C19.9563 9.95875 19.375 9.64877 19.375 9.1321V5.06332C21.0671 4.39165 22.9529 3.84921 24.5417 3.59088Z" fill="#00B06C"/>
</svg>
