<svg width="31" height="31" viewBox="0 0 31 31" fill="none" xmlns="http://www.w3.org/2000/svg">
<path opacity="0.4" d="M22.5008 1.78253C22.2296 1.6017 21.8937 1.56293 21.5967 1.67918C19.7496 2.41543 17.7087 2.41543 15.8617 1.67918C15.5646 1.56293 15.2287 1.6017 14.9575 1.78253C14.6862 1.96337 14.5312 2.26045 14.5312 2.58336V6.45836V10.3334C14.5312 10.8629 14.9704 11.3021 15.5 11.3021C16.0296 11.3021 16.4688 10.8629 16.4688 10.3334V7.77589C17.2179 7.95672 17.9671 8.06002 18.7292 8.06002C19.9433 8.06002 21.1575 7.82754 22.32 7.36254C22.6817 7.22046 22.9271 6.85878 22.9271 6.45836V2.58336C22.9271 2.26045 22.7721 1.96337 22.5008 1.78253Z" fill="#00B06C"/>
<path d="M28.4167 27.4479H26.8021V14.2083C26.8021 11.0825 25.0842 9.36456 21.9584 9.36456H9.04171C5.91587 9.36456 4.19796 11.0825 4.19796 14.2083V27.4479H2.58337C2.05379 27.4479 1.61462 27.8871 1.61462 28.4166C1.61462 28.9462 2.05379 29.3854 2.58337 29.3854H5.16671H25.8334H28.4167C28.9463 29.3854 29.3855 28.9462 29.3855 28.4166C29.3855 27.8871 28.9463 27.4479 28.4167 27.4479ZM24.8646 16.4687V27.4479H21.6225V16.4687H24.8646ZM14.5184 27.4479H11.2892V16.4687H14.5184V27.4479ZM16.4559 16.4687H19.685V27.4479H16.4559V16.4687ZM6.13546 16.4687H9.35171V27.4479H6.13546V16.4687Z" fill="#00B06C"/>
</svg>
