<svg width="27" height="27" viewBox="0 0 27 27" fill="none" xmlns="http://www.w3.org/2000/svg">
<path d="M17.4278 14.291C17.0603 16.0941 15.4098 17.4551 13.5 17.4551C11.5902 17.4551 9.99249 16.0941 9.62498 14.291H8.04285C8.43081 16.9673 10.718 19.0371 13.5 19.0371C16.282 19.0371 18.6219 16.9673 19.0099 14.291H17.4278Z" fill="#00B06C"/>
<path d="M20.5919 14.291C20.1926 17.8408 17.1549 20.6191 13.5 20.6191C9.84514 20.6191 6.86016 17.8408 6.4608 14.291H0V15.082C0 15.4227 0.218637 15.7255 0.541529 15.8329L3.79619 16.895C3.93293 17.2828 4.07737 17.6359 4.23188 17.9618L2.73016 20.9791C2.57876 21.2834 2.63899 21.6504 2.87924 21.8906L5.10938 24.1208C5.35117 24.3625 5.7173 24.4197 6.02089 24.2698L9.0382 22.7681C9.3642 22.9226 9.71721 23.0671 10.105 23.2038L11.1671 26.4585C11.2745 26.7814 11.5773 27 11.918 27H15.1348C15.4754 27 15.7782 26.7814 15.8856 26.4585L16.9478 23.2038C17.3356 23.0671 17.6886 22.9226 18.0145 22.7681L21.0318 24.2698C21.3354 24.4204 21.7024 24.3625 21.9434 24.1208L24.1735 21.8906C24.4137 21.6504 24.474 21.2834 24.3226 20.9791L22.8209 17.9618C22.9754 17.6358 23.1198 17.2828 23.2565 16.895L26.4585 15.8329C26.7814 15.7255 27 15.4227 27 15.082V14.291H20.5919Z" fill="#00B06C"/>
<path d="M11.2727 14.291C11.6003 15.2098 12.4701 15.873 13.5 15.873C14.5299 15.873 15.4525 15.2098 15.7801 14.291H11.2727Z" fill="#00B06C"/>
<path d="M13.5 0C11.755 0 10.3359 1.41903 10.3359 3.16406C10.3359 4.9091 11.755 6.32812 13.5 6.32812C15.245 6.32812 16.7168 4.9091 16.7168 3.16406C16.7168 1.41903 15.245 0 13.5 0Z" fill="#00B06C"/>
<path d="M21.4629 0C19.7179 0 18.2988 1.41903 18.2988 3.16406C18.2988 4.9091 19.7179 6.32812 21.4629 6.32812C23.2079 6.32812 24.627 4.9091 24.627 3.16406C24.627 1.41903 23.2079 0 21.4629 0Z" fill="#00B06C"/>
<path d="M5.58984 0C3.84481 0 2.42578 1.41903 2.42578 3.16406C2.42578 4.9091 3.84481 6.32812 5.58984 6.32812C7.33488 6.32812 8.75391 4.9091 8.75391 3.16406C8.75391 1.41903 7.33488 0 5.58984 0Z" fill="#00B06C"/>
<path d="M24.161 7.06024C23.3938 7.59333 22.4659 7.91016 21.4628 7.91016C20.4639 7.91016 19.539 7.59671 18.7735 7.06768C18.4266 7.26686 18.0932 7.49082 17.7913 7.76087C19.3296 8.9108 20.3976 10.7067 20.6235 12.709H26.9999V11.918C26.9999 9.84957 25.8461 8.01078 24.161 7.06024Z" fill="#00B06C"/>
<path d="M13.5 7.91016C10.7152 7.91016 8.40398 10.0293 8.01929 12.709H19.0334C18.6488 10.0293 16.2848 7.91016 13.5 7.91016Z" fill="#00B06C"/>
<path d="M8.27914 7.06768C7.5137 7.59671 6.58874 7.91016 5.58984 7.91016C4.58678 7.91016 3.65892 7.59333 2.89169 7.06024C1.20662 8.01078 0 9.84957 0 11.918V12.709H6.42916C6.65508 10.7067 7.72311 8.9108 9.26142 7.76087C8.95946 7.49082 8.62608 7.26686 8.27914 7.06768Z" fill="#00B06C"/>
</svg>
